<svg xmlns="http://www.w3.org/2000/svg" width="256" height="256" viewBox="0 0 64 64" fill="none">
  <rect x="22" y="4" width="20" height="56" rx="6" fill="#1C84D6"/>
  <rect x="4" y="22" width="56" height="20" rx="6" fill="#1C84D6"/>
  <path d="M22 4h10v56H22z" fill="#8BD24A"/>
  <path d="M4 22h28v20H4z" fill="#8BD24A"/>
  <circle cx="28.5" cy="13" r="2.75" fill="#111111"/>
  <circle cx="37.5" cy="13" r="2.75" fill="#111111"/>
  <path d="M23.5 22.5c1.1-7.2 3.8-11 8.1-11" stroke="#111111" stroke-width="4" stroke-linecap="round"/>
  <path d="M40.5 22.5c-1.1-7.2-3.8-11-8.1-11" stroke="#111111" stroke-width="4" stroke-linecap="round"/>
  <circle cx="23.8" cy="28.6" r="2.8" fill="#111111"/>
  <circle cx="40.2" cy="28.6" r="2.8" fill="#111111"/>
  <path d="M23.8 28.6c1.9 8.1 6 12.5 12.2 12.5 6.1 0 10-4.4 11.8-12.5" stroke="#111111" stroke-width="4" stroke-linecap="round"/>
  <path d="M31.8 40.5c-.8 3.9-1.1 7.3-1.1 10.1 0 6.1 3.8 10.8 10.4 10.8 5.2 0 10.5-2.5 14-6.2" stroke="#111111" stroke-width="4" stroke-linecap="round"/>
  <circle cx="49" cy="48.8" r="7.2" fill="#ffffff" stroke="#1C84D6" stroke-width="3.6"/>
  <circle cx="49" cy="48.8" r="3.8" fill="#1C84D6"/>
</svg>
